REM DIRINDEX 1\2\3,1\2\4,1\2\5,1\2\6
REM DIRNAME folder01,folder02,folder03,folder04,folder05,folder06
TITLE ""
FILE "062 062.mp3" MP3
  TRACK 01 AUDIO
    TITLE "0:"
    INDEX 01 00:00:00
  TRACK 02 AUDIO
    TITLE "3:cjc157_2294"
    INDEX 01 00:00:09
  TRACK 03 AUDIO
    TITLE "0:"
    INDEX 01 00:01:42
  TRACK 04 AUDIO
    TITLE "4:cjc157_2295"
    INDEX 01 00:02:14
  TRACK 05 AUDIO
    TITLE "0:"
    INDEX 01 00:03:31
  TRACK 06 AUDIO
    TITLE "5:cjc157_2296"
    INDEX 01 00:04:01
  TRACK 07 AUDIO
    TITLE "0:"
    INDEX 01 00:06:20
  TRACK 08 AUDIO
    TITLE "5:cjc157_2297"
    INDEX 01 00:06:69
  TRACK 09 AUDIO
    TITLE "0:"
    INDEX 01 00:08:52
  TRACK 10 AUDIO
    TITLE "3:cjc157_2298"
    INDEX 01 00:09:22
  TRACK 11 AUDIO
    TITLE "0:"
    INDEX 01 00:10:63
  TRACK 12 AUDIO
    TITLE "4:cjc157_2299"
    INDEX 01 00:11:33
  TRACK 13 AUDIO
    TITLE "0:"
    INDEX 01 00:12:60
  TRACK 14 AUDIO
    TITLE "5:cjc157_2300"
    INDEX 01 00:13:28
  TRACK 15 AUDIO
    TITLE "0:"
    INDEX 01 00:16:73
  TRACK 16 AUDIO
    TITLE "5:cjc157_2301"
    INDEX 01 00:17:43
  TRACK 17 AUDIO
    TITLE "0:"
    INDEX 01 00:19:30
  TRACK 18 AUDIO
    TITLE "3:cjc157_2302"
    INDEX 01 00:20:00
  TRACK 19 AUDIO
    TITLE "0:"
    INDEX 01 00:21:06
  TRACK 20 AUDIO
    TITLE "4:cjc157_2303"
    INDEX 01 00:21:53
  TRACK 21 AUDIO
    TITLE "0:"
    INDEX 01 00:22:58
  TRACK 22 AUDIO
    TITLE "5:cjc157_2304"
    INDEX 01 00:23:28
  TRACK 23 AUDIO
    TITLE "0:"
    INDEX 01 00:25:11
  TRACK 24 AUDIO
    TITLE "5:cjc157_2305"
    INDEX 01 00:25:58
  TRACK 25 AUDIO
    TITLE "0:"
    INDEX 01 00:27:45
  TRACK 26 AUDIO
    TITLE "3:cjc157_2306"
    INDEX 01 00:28:15
  TRACK 27 AUDIO
    TITLE "0:"
    INDEX 01 00:29:11
  TRACK 28 AUDIO
    TITLE "4:cjc157_2307"
    INDEX 01 00:29:54
  TRACK 29 AUDIO
    TITLE "0:"
    INDEX 01 00:30:67
  TRACK 30 AUDIO
    TITLE "5:cjc157_2308"
    INDEX 01 00:31:35
  TRACK 31 AUDIO
    TITLE "0:"
    INDEX 01 00:33:36
  TRACK 32 AUDIO
    TITLE "5:cjc157_2309"
    INDEX 01 00:34:12
  TRACK 33 AUDIO
    TITLE "0:"
    INDEX 01 00:35:70
  TRACK 34 AUDIO
    TITLE "5:cjc157_2310"
    INDEX 01 00:36:42
  TRACK 35 AUDIO
    TITLE "0:"
    INDEX 01 00:40:01
  TRACK 36 AUDIO
    TITLE "3:cjc157_2311"
    INDEX 01 00:40:44
  TRACK 37 AUDIO
    TITLE "0:"
    INDEX 01 00:41:57
  TRACK 38 AUDIO
    TITLE "4:cjc157_2312"
    INDEX 01 00:42:29
  TRACK 39 AUDIO
    TITLE "0:"
    INDEX 01 00:43:66
  TRACK 40 AUDIO
    TITLE "5:cjc157_2313"
    INDEX 01 00:44:40
  TRACK 41 AUDIO
    TITLE "0:"
    INDEX 01 00:47:09
  TRACK 42 AUDIO
    TITLE "5:cjc157_2314"
    INDEX 01 00:47:60
  TRACK 43 AUDIO
    TITLE "0:"
    INDEX 01 00:49:45
  TRACK 44 AUDIO
    TITLE "3:cjc157_2315"
    INDEX 01 00:50:19
  TRACK 45 AUDIO
    TITLE "0:"
    INDEX 01 00:51:54
  TRACK 46 AUDIO
    TITLE "4:cjc157_2316"
    INDEX 01 00:52:24
  TRACK 47 AUDIO
    TITLE "0:"
    INDEX 01 00:53:47
  TRACK 48 AUDIO
    TITLE "5:cjc157_2317"
    INDEX 01 00:54:21
  TRACK 49 AUDIO
    TITLE "0:"
    INDEX 01 00:56:18
  TRACK 50 AUDIO
    TITLE "5:cjc157_2318"
    INDEX 01 00:56:59
  TRACK 51 AUDIO
    TITLE "0:"
    INDEX 01 00:59:18
  TRACK 52 AUDIO
    TITLE "3:cjc157_2319"
    INDEX 01 00:59:65
  TRACK 53 AUDIO
    TITLE "0:"
    INDEX 01 01:01:11
  TRACK 54 AUDIO
    TITLE "4:cjc157_2320"
    INDEX 01 01:01:56
  TRACK 55 AUDIO
    TITLE "0:"
    INDEX 01 01:02:67
  TRACK 56 AUDIO
    TITLE "5:cjc157_2321"
    INDEX 01 01:03:35
  TRACK 57 AUDIO
    TITLE "0:"
    INDEX 01 01:05:07
  TRACK 58 AUDIO
    TITLE "5:cjc157_2322"
    INDEX 01 01:05:46
  TRACK 59 AUDIO
    TITLE "0:"
    INDEX 01 01:07:21
  TRACK 60 AUDIO
    TITLE "3:cjc157_2323"
    INDEX 01 01:07:66
  TRACK 61 AUDIO
    TITLE "0:"
    INDEX 01 01:09:03
  TRACK 62 AUDIO
    TITLE "4:cjc157_2324"
    INDEX 01 01:09:50
  TRACK 63 AUDIO
    TITLE "0:"
    INDEX 01 01:10:63
  TRACK 64 AUDIO
    TITLE "5:cjc157_2325"
    INDEX 01 01:11:33
  TRACK 65 AUDIO
    TITLE "0:"
    INDEX 01 01:13:22
  TRACK 66 AUDIO
    TITLE "5:cjc157_2326"
    INDEX 01 01:13:71
  TRACK 67 AUDIO
    TITLE "0:"
    INDEX 01 01:16:34
  TRACK 68 AUDIO
    TITLE "3:cjc157_2327"
    INDEX 01 01:17:06
  TRACK 69 AUDIO
    TITLE "0:"
    INDEX 01 01:18:13
  TRACK 70 AUDIO
    TITLE "4:cjc157_2328"
    INDEX 01 01:18:58
  TRACK 71 AUDIO
    TITLE "0:"
    INDEX 01 01:19:68
  TRACK 72 AUDIO
    TITLE "5:cjc157_2329"
    INDEX 01 01:20:40
  TRACK 73 AUDIO
    TITLE "0:"
    INDEX 01 01:22:64
  TRACK 74 AUDIO
    TITLE "3:cjc157_2330"
    INDEX 01 01:23:36
  TRACK 75 AUDIO
    TITLE "0:"
    INDEX 01 01:24:63
  TRACK 76 AUDIO
    TITLE "4:cjc157_2331"
    INDEX 01 01:25:33
  TRACK 77 AUDIO
    TITLE "0:"
    INDEX 01 01:26:66
  TRACK 78 AUDIO
    TITLE "5:cjc157_2332"
    INDEX 01 01:27:46
  TRACK 79 AUDIO
    TITLE "0:"
    INDEX 01 01:30:20
  TRACK 80 AUDIO
    TITLE "5:cjc157_2333"
    INDEX 01 01:30:71
  TRACK 81 AUDIO
    TITLE "0:"
    INDEX 01 01:33:17
